<svg xmlns="http://www.w3.org/2000/svg" width="75.917" height="48.911" viewBox="0 0 75.917 48.911">
  <path id="Caminho_12212" data-name="Caminho 12212" d="M3.274,32.4,19.783,48.911l3.956-3.956L7.231,28.445a5.659,5.659,0,0,1,0-7.98L23.739,3.956,19.783,0,3.274,16.509a11.271,11.271,0,0,0,0,15.892ZM55.338,16.509,38.829,0,34.873,3.956,51.382,20.465a5.66,5.66,0,0,1,0,7.98L34.873,44.954l3.956,3.956L55.338,32.4A11.27,11.27,0,0,0,55.338,16.509Zm17.3,0L56.126,0,52.17,3.956,68.679,20.465a5.659,5.659,0,0,1,0,7.98L52.17,44.954l3.956,3.956L72.635,32.4A11.271,11.271,0,0,0,72.635,16.509Z" transform="translate(0.004)" fill="#46bd9f" fill-rule="evenodd"/>
</svg>
